    <!-- SVG Sprite -->
    <svg width="0" height="0" xmlns="http://www.w3.org/2000/svg" class="hidden">

      <symbol id="box-package" viewBox="0 0 490.076 490.076">
   <g>
   <path d="M489.14,311.5l-45.03-97.583c-0.03-0.065-1.93-4.798-7.617-5.796l-189.762-31.188c-0.172-0.028-1.824-0.291-3.419,0.018
       L53.66,208.121c-3.344,0.548-6.195,2.722-7.617,5.796L1.014,311.5c-4.109,9.608,5.339,14.978,9.271,14.485h34.822V448.7
       c0,4.999,3.619,9.261,8.554,10.073l189.762,31.188c0.159,0.026,3.147,0.027,3.31,0l189.762-31.188
       c4.935-0.813,8.553-5.074,8.553-10.073V325.985h34.822c3.479,0,6.724-1.775,8.598-4.706
       C490.341,318.349,490.595,314.66,489.14,311.5z M26.241,305.569l36.073-78.177l103.723-17.05l63.728-10.474l-36.96,105.701H26.241z
        M234.869,467.865L65.524,440.031V325.985h134.523c4.337,0,8.205-2.742,9.635-6.839l25.187-72.026V467.865z M424.63,440.031
       l-169.345,27.834V247.122l25.187,72.024c1.43,4.098,5.298,6.839,9.635,6.839H424.63V440.031z M297.35,305.569l-36.96-105.701
       l66.363,10.907l101.087,16.616l36.073,78.177H297.35z"/>
   <path d="M325.876,83.004h-46.83V0.096h-67.938v82.908h-46.83l80.799,80.331L325.876,83.004z M231.524,103.42V20.512h27.105v82.908
       h17.75l-31.303,31.123l-31.303-31.123H231.524z"/>
   </g>
   </symbol>

   <symbol id="box-package-close" viewBox="0 0 512 512">
    <g>
      <g>
        <path d="M470.573,369.837c-1.951-5.285-7.815-7.988-13.1-6.038l-106.072,39.139c-5.285,1.95-7.988,7.815-6.038,13.1
			c1.521,4.12,5.42,6.671,9.57,6.671c1.172,0,2.365-0.204,3.53-0.633l106.072-39.139
			C469.82,380.987,472.523,375.122,470.573,369.837z"></path>
      </g>
    </g>
    <g>
      <g>
        <path d="M335.337,419.738c-1.949-5.286-7.815-7.989-13.1-6.039l-4.492,1.657c-5.284,1.95-7.988,7.815-6.038,13.099
			c1.52,4.12,5.42,6.672,9.57,6.672c1.172,0,2.365-0.204,3.53-0.633l4.492-1.657C334.583,430.887,337.287,425.023,335.337,419.738z"></path>
      </g>
    </g>
    <g>
      <g>
        <path d="M470.573,328.276c-1.951-5.285-7.815-7.986-13.1-6.038l-83.825,30.93c-5.285,1.95-7.988,7.815-6.038,13.1
			c1.521,4.12,5.42,6.671,9.57,6.671c1.172,0,2.365-0.204,3.53-0.633l83.825-30.93C469.82,339.426,472.523,333.561,470.573,328.276z
			"></path>
      </g>
    </g>
    <g>
      <g>
        <path d="M470.573,287.147c-1.951-5.285-7.815-7.986-13.1-6.038l-83.825,30.93c-5.285,1.95-7.988,7.815-6.038,13.1
			c1.521,4.12,5.42,6.671,9.57,6.671c1.172,0,2.365-0.204,3.53-0.633l83.825-30.93C469.82,298.297,472.523,292.432,470.573,287.147z
			"></path>
      </g>
    </g>
    <g>
      <g>
        <path d="M505.332,100.528L259.531,9.832c-2.279-0.84-4.783-0.84-7.061,0L6.669,100.528l-0.002,0.008
			c-0.805,0.298-1.579,0.692-2.299,1.193C1.631,103.637,0,106.762,0,110.097v291.806c0,4.271,2.661,8.09,6.668,9.569l245.801,90.696
			c1.146,0.423,2.341,0.63,3.53,0.63c1.201,0,2.396-0.218,3.528-0.636l0.004,0.006l245.801-90.696
			c4.007-1.479,6.668-5.297,6.668-9.569V110.097C512,105.825,509.339,102.007,505.332,100.528z M245.801,477.965L20.398,394.795
			V124.732l45.896,16.936v123.578c0,4.271,2.661,8.09,6.668,9.569l110.151,40.645c1.146,0.423,2.341,0.63,3.53,0.63
			c2.058,0,4.098-0.623,5.833-1.832c2.736-1.907,4.367-5.032,4.367-8.367V189.838l48.956,18.064V477.965z M176.446,182.311v108.943
			l-89.753-33.118V149.193L176.446,182.311z M105.957,134.477l80.688-29.773l80.688,29.773l-80.688,29.773L105.957,134.477z
			 M256,189.922l-40.001-14.76l84.329-31.117c4.007-1.479,6.668-5.297,6.668-9.569s-2.661-8.09-6.668-9.569L190.176,84.263
			c-2.279-0.84-4.782-0.84-7.062,0L76.383,123.647l-36.72-13.55L256,30.273l216.337,79.825L256,189.922z M491.602,394.795
			l-225.402,83.169V207.902l225.402-83.17V394.795z"></path>
      </g>
    </g>
  </symbol>

  <symbol id="broom" viewBox="0 0 512 512">
    <path d="M153.654 18l52.57 134.734c1.698 3.994 4.05 5.83 7.243 6.977 3.2 1.15 7.36 1.2 11.058.17 3.698-1.03 6.71-3.146 7.996-4.915 1.288-1.77 1.634-2.564.505-5.24l-.046-.112L181.57 18h-27.916zm94.168 120.143l1.88 4.81-.09-.223c3.346 7.937 1.828 16.822-2.532 22.82-4.36 5.996-10.773 9.734-17.723 11.67-6.95 1.937-14.653 2.065-21.98-.57-7.327-2.634-14.155-8.447-17.742-16.923l-.05-.118-1.757-4.5c-31.31 19.804-42.47 42.026-35.367 68.89 1.24 4.681 3.422 12.364 5.964 22.13 74.37-5.274 139.945-23.872 199.808-51.6-10.297-13.867-22.5-25.83-38.232-34.53-20.505-11.34-47.652-20.157-72.178-21.857zm120.557 71.52c-61.497 28.81-129.173 48.378-205.575 54.196 2.03 8.683 4.08 18.28 5.95 28.495 89.592-10.084 163.043-26.22 217.755-48.767-5.743-11.72-11.593-23.19-18.13-33.924zm26.04 50.16c-57.093 23.772-131.99 40.087-222.73 50.322C180.697 371.423 179.614 446.752 128 480c16.27 0 31.892-.152 46.926-.45 17.84-25.554 31.27-66.222 32.08-86.146 8.27 16.793 3.297 59.32-5.36 85.434 2.735-.093 5.435-.193 8.127-.297 11.824-12.397 11.724-28.632 14.72-47.284 3.324 14.92 7 32.967 9.505 46.156 11.273-.616 22.152-1.34 32.606-2.183 16.38-20.358 21.65-49.604 18.63-85.48 4.226 29.1 9.116 62.138 11.873 82.55 9.662-1.083 18.925-2.29 27.807-3.614 5.04-18.787-4.1-48.444-2.072-69.54 11.123 43.113 22.247 55.45 33.37 64.043 5.42-1.115 10.655-2.293 15.733-3.526-4.7-13.95 1.573-22.497 1.18-39.986 5.647 18.99 14.625 26.958 24.428 32.816 6.506-2.1 12.66-4.336 18.492-6.697-10.538-6.57-10.113-26.374-12.38-42.926 5.954 21.703 14.413 32.418 24.083 37.816 29.124-13.8 48.69-31.534 60.398-53.657-9.078-3.82-18.674-13.002-28.068-20.092 13.214 7.477 23.684 10.614 32.37 10.93 1.323-3.206 2.514-6.49 3.552-9.868-56.326-19.528-80.07-64.018-101.58-108.178z"></path>
  </symbol>

  <symbol id="car-driver" viewBox="0 0 256 158.7">
    <path d="M80.1,129.2c0,15.2-12.3,27.5-27.5,27.5c-15.2,0-27.5-12.3-27.5-27.5s12.3-27.5,27.5-27.5C67.8,101.7,80.1,114,80.1,129.2z
	 M66.1,129.2c0-7.4-6.1-13.5-13.5-13.5c-7.4,0-13.5,6.1-13.5,13.5c0,7.4,6.1,13.5,13.5,13.5S66.1,136.6,66.1,129.2z M231.2,129.2
	c0,15.2-12.3,27.5-27.5,27.5s-27.5-12.3-27.5-27.5s12.3-27.5,27.5-27.5S231.2,114,231.2,129.2z M217.2,129.2
	c0-7.4-6.1-13.5-13.5-13.5c-7.4,0-13.5,6.1-13.5,13.5c0,7.4,6.1,13.5,13.5,13.5S217.2,136.6,217.2,129.2z M253.8,104.7H248v0l0-28.1
	c0-8.8-7.1-15.9-16-15.9h-39c-0.6,0-1.2-0.3-1.6-0.7l-44.5-48c-2-2-4.8-3.2-7.7-3.3l-86.5,0c-7.5,0-13.9,5.1-15.6,12.4l-8.7,37.9
	c-0.2,1-1.1,1.7-2.2,1.7h0C16.2,60.7,8,68.8,8,78.9v23.5c0,1.2-1,2.2-2.2,2.2H2.2c-1.2,0-2.2,1-2.2,2.2v7.5
	c0,5.6,4.6,10.2,10.2,10.2h4.1c1.1,0,2-0.8,2.2-1.8c3-17.2,18.1-30.4,36.2-30.4c18.1,0,33.1,13.1,36.1,30.3c0.2,1.1,1.1,1.8,2.2,1.8
	h74.4c1.1,0,2-0.8,2.2-1.8c3-17.2,18-30.3,36.1-30.3s33.1,13.1,36.1,30.3c0.2,1.1,1.1,1.8,2.2,1.8h3.8c5.7,0,10.2-4.6,10.2-10.2
	v-7.4C256,105.7,255,104.7,253.8,104.7z M92,58.4c0,1.2-1,2.2-2.2,2.2h-47c-1.4,0-2.5-1.3-2.2-2.7l7.7-34.2c0.4-1.8,1.8-3.1,3.7-3.1
	h37.8c1.2,0,2.2,1,2.2,2.2V58.4z M170,60.7h-63.8c-1.2,0-2.2-1-2.2-2.2V22.9c0-1.2,1-2.2,2.2-2.2h31.6c0.6,0,1.2,0.3,1.7,0.7
	l32.2,35.5C172.9,58.4,171.9,60.7,170,60.7z M130,54.8c7.8,0,14.1-6.3,14.1-14.1s-6.3-14.1-14.1-14.1s-14.1,6.3-14.1,14.1
	S122.2,54.8,130,54.8z"></path>
  </symbol>

  <symbol id="car-face" viewBox="0 0 496 496">
      <g>
        <g>
          <g>
            <path d="M248,200h137.064C397.712,200,408,189.712,408,177.064c0-1.096-0.072-2.176-0.224-3.248l-14.016-98.12
          C392.152,64.472,382.384,56,371.048,56H248H124.952c-11.336,0-21.104,8.472-22.712,19.696l-14.008,98.112
          c-0.16,1.072-0.232,2.16-0.232,3.256C88,189.712,98.288,200,110.936,200H248z M104,177.064c0-0.328,0.024-0.648,0.072-0.984
          l14.016-98.12c0.48-3.4,3.432-5.96,6.864-5.96H248h123.048c3.432,0,6.384,2.56,6.864,5.96l14.024,98.128
          c0.04,0.328,0.064,0.648,0.064,0.976c0,3.824-3.112,6.936-6.936,6.936H248H110.936C107.112,184,104,180.888,104,177.064z"></path>
            <path d="M496,184v-16c0-13.232-10.768-24-24-24h-31.112L428,58.064c-2.792-18.536-17.672-32.144-36-33.744V0h-16v24H248H120V0
          h-16v24.32c-18.328,1.6-33.208,15.208-36,33.744L55.112,144H24c-13.232,0-24,10.768-24,24v16c0,13.232,10.768,24,24,24h15.808
          L3.68,286.264C1.272,291.496,0,297.288,0,303.032V408c0,19.312,13.768,35.472,32,39.192V472c0,13.232,10.768,24,24,24h32
          c13.232,0,24-10.768,24-24v-24h136h136v24c0,13.232,10.768,24,24,24h32c13.232,0,24-10.768,24-24v-24.808
          c18.232-3.72,32-19.872,32-39.192V303.032c0-5.744-1.272-11.536-3.68-16.768L456.192,208H472C485.232,208,496,197.232,496,184z
           M24,192c-4.416,0-8-3.584-8-8v-16c0-4.416,3.584-8,8-8h28.712l-4.456,29.688L47.192,192H24z M34.008,258.744l39.928,9.984
          c3.568,0.896,6.064,4.088,6.064,7.768V304c0,4.416-3.584,8-8,8H59.776c-1.232,0-2.472-0.288-3.568-0.84L18.52,292.312
          L34.008,258.744z M96,472c0,4.416-3.584,8-8,8h-8v-16H64v16h-8c-4.416,0-8-3.584-8-8v-24h48V472z M448,472c0,4.416-3.584,8-8,8
          h-8v-16h-16v16h-8c-4.416,0-8-3.584-8-8v-24h48V472z M480,368h-16v16h16v24c0,13.232-10.768,24-24,24H248H40
          c-13.232,0-24-10.768-24-24v-24h432v-16H16v-59.056l33.048,16.52C52.36,327.128,56.072,328,59.776,328H72
          c13.232,0,24-10.768,24-24v-27.504c0-11.032-7.48-20.608-18.176-23.28l-36.992-9.248l22.44-48.616L83.832,60.44
          C85.6,48.592,95.584,40,107.552,40H248h140.448c11.968,0,21.952,8.592,23.728,20.44l19.912,132.752l23.24,50.736l-37.152,9.288
          C407.48,255.88,400,265.464,400,276.496V304c0,13.232,10.768,24,24,24h17.888L480,308.944V368z M462.104,258.72l15.384,33.592
          L438.112,312H424c-4.416,0-8-3.584-8-8v-27.504c0-3.68,2.496-6.864,6.056-7.768L462.104,258.72z M448.808,192l-1.064-2.312
          L443.288,160H472c4.416,0,8,3.584,8,8v16c0,4.416-3.584,8-8,8H448.808z"></path>
            <path d="M348.912,240H147.088C123.328,240,104,259.328,104,283.088c0,4.016,0.56,8,1.656,11.832l7.376,25.832
          c5.256,18.4,22.296,31.248,41.44,31.248h187.064c19.144,0,36.176-12.848,41.44-31.248l7.368-25.824
          c1.096-3.84,1.656-7.824,1.656-11.84C392,259.328,372.672,240,348.912,240z M374.952,290.528l-7.376,25.832
          C364.272,327.92,353.56,336,341.528,336H154.472c-12.032,0-22.744-8.08-26.048-19.64l-7.384-25.832
          c-0.688-2.416-1.04-4.912-1.04-7.44C120,268.152,132.152,256,147.088,256H348.92c14.928,0,27.08,12.152,27.08,27.088
          C376,285.608,375.648,288.112,374.952,290.528z"></path>
            <rect x="136" y="272" width="224" height="16"></rect>
            <rect x="144" y="304" width="208" height="16"></rect>
          </g>
        </g>
      </g>
    </symbol>

  <symbol id="car-jeep" viewBox="0 0 511 511">
    <g>
      <path d="M119.5,384c-4.142,0-7.5,3.358-7.5,7.5c0,9.098-7.402,16.5-16.5,16.5S79,400.598,79,391.5S86.402,375,95.5,375
		c4.142,0,7.5-3.358,7.5-7.5s-3.358-7.5-7.5-7.5C78.131,360,64,374.131,64,391.5S78.131,423,95.5,423s31.5-14.131,31.5-31.5
		C127,387.358,123.642,384,119.5,384z"></path>
      <path d="M439.5,384c-4.142,0-7.5,3.358-7.5,7.5c0,9.098-7.402,16.5-16.5,16.5s-16.5-7.402-16.5-16.5s7.402-16.5,16.5-16.5
		c4.142,0,7.5-3.358,7.5-7.5s-3.358-7.5-7.5-7.5c-17.369,0-31.5,14.131-31.5,31.5s14.131,31.5,31.5,31.5s31.5-14.131,31.5-31.5
		C447,387.358,443.642,384,439.5,384z"></path>
      <path d="M447.5,256h-16c-4.142,0-7.5,3.358-7.5,7.5s3.358,7.5,7.5,7.5h16c4.142,0,7.5-3.358,7.5-7.5S451.642,256,447.5,256z"></path>
      <path d="M327.5,320h-144c-4.142,0-7.5,3.358-7.5,7.5s3.358,7.5,7.5,7.5h144c4.142,0,7.5-3.358,7.5-7.5S331.642,320,327.5,320z"></path>
      <path d="M471.513,224H371.038l-68.199-82.764c-0.077-0.094-0.157-0.186-0.239-0.275c-6.198-6.817-14.583-11.219-23.6-12.537V95.5
		c0-17.369-14.131-31.5-31.5-31.5H215v-0.5c0-4.142-3.358-7.5-7.5-7.5s-7.5,3.358-7.5,7.5V64h-41v-0.5c0-4.142-3.358-7.5-7.5-7.5
		s-7.5,3.358-7.5,7.5V64h-32.5C94.131,64,80,78.131,80,95.5v32.537c-13.185,0.383-25.202,7.168-32.316,18.347
		c-0.068,0.107-0.134,0.217-0.197,0.328L6.061,219.793C2.095,226.095,0,233.356,0,240.805V327.5
		c0,15.285,9.017,29.334,22.972,35.791c2.002,0.927,4.312,0.925,6.311-0.006c1.829-0.85,3.221-2.4,3.894-4.285h7.798
		C35.282,368.514,32,379.629,32,391.5c0,35.014,28.486,63.5,63.5,63.5s63.5-28.486,63.5-63.5c0-11.871-3.282-22.986-8.975-32.5
		h7.775c0.19,0.718,0.375,1.437,0.54,2.162c0.776,3.415,3.812,5.838,7.313,5.838h179.691c3.502,0,6.538-2.423,7.313-5.838
		c0.165-0.725,0.35-1.444,0.54-2.162h7.775c-5.693,9.514-8.975,20.629-8.975,32.5c0,35.014,28.486,63.5,63.5,63.5
		s63.5-28.486,63.5-63.5c0-11.871-3.282-22.986-8.975-32.5h7.775c0.19,0.718,0.375,1.437,0.54,2.162
		c0.776,3.415,3.812,5.838,7.313,5.838h1.823C500.448,367,511,356.447,511,343.477v-79.99C511,241.714,493.286,224,471.513,224z
		 M496,288h-8.5c-4.687,0-8.5-3.813-8.5-8.5s3.813-8.5,8.5-8.5h8.5V288z M304.563,166.916L351.602,224H116.042l24.522-45.65
		C145.1,171.238,152.822,167,161.27,167H303.5C303.862,167,304.215,166.966,304.563,166.916z M247.5,79
		c9.098,0,16.5,7.402,16.5,16.5V128h-49V79H247.5z M200,79v49h-41V79H200z M111.5,79H144v49H95V95.5C95,86.402,102.402,79,111.5,79z
		 M53.401,166.696c0.667,0.194,1.37,0.304,2.099,0.304h35.457l-24.535,45.671C61.896,219.769,54.187,224,45.754,224H20.918
		L53.401,166.696z M95.5,440C68.757,440,47,418.243,47,391.5S68.757,343,95.5,343s48.5,21.757,48.5,48.5S122.243,440,95.5,440z
		 M137.579,344c-11.213-9.944-25.948-16-42.079-16s-30.866,6.056-42.079,16H39.29c11.21-19.986,32.578-33,56.21-33
		c14.913,0,28.908,4.948,40.474,14.31c6.412,5.19,11.746,11.568,15.741,18.69H137.579z M415.5,440c-26.743,0-48.5-21.757-48.5-48.5
		s21.757-48.5,48.5-48.5s48.5,21.757,48.5,48.5S442.243,440,415.5,440z M457.579,344c-11.213-9.944-25.948-16-42.079-16
		s-30.866,6.056-42.079,16h-14.136c3.995-7.123,9.329-13.5,15.741-18.69C386.592,315.948,400.587,311,415.5,311
		s28.908,4.948,40.474,14.31c6.412,5.19,11.746,11.568,15.741,18.69H457.579z M491.139,351.172
		c-4.717-14.635-13.689-27.777-25.728-37.521C451.35,302.269,433.624,296,415.5,296s-35.85,6.269-49.911,17.651
		c-12.266,9.928-21.347,23.382-25.99,38.349H171.401c-4.643-14.967-13.724-28.421-25.99-38.349C131.35,302.269,113.624,296,95.5,296
		c-32.221,0-61.034,19.614-73.261,48.782C17.694,340.261,15,334.063,15,327.5V271h384.5c4.142,0,7.5-3.358,7.5-7.5
		s-3.358-7.5-7.5-7.5H15v-15.195c0-0.611,0.026-1.22,0.071-1.826C15.214,238.986,15.355,239,15.5,239h30.254
		c13.715,0,26.243-6.943,33.512-18.574c0.087-0.139,0.169-0.281,0.247-0.425l30.595-56.951c1.249-2.324,1.184-5.134-0.17-7.398
		S106.139,152,103.5,152H62.113c4.661-5.68,11.587-9,19.062-9h192.127c6.858,0,13.44,2.887,18.086,7.926l0.885,1.074H161.27
		c-13.729,0-26.271,6.951-33.547,18.594c-0.087,0.139-0.169,0.281-0.247,0.426l-30.582,56.931c-1.249,2.325-1.184,5.134,0.17,7.398
		S100.861,239,103.5,239h264h104.013c10.891,0,20.141,7.149,23.312,17H487.5c-12.958,0-23.5,10.542-23.5,23.5s10.542,23.5,23.5,23.5
		h8.5v40.477C496,346.866,494.011,349.8,491.139,351.172z"></path>
    </g>
  </symbol>

  <symbol id="car-profile" viewBox="0 0 512 512">
    <g>
      <g>
        <path d="M401.067,287.834c-23.526,0-42.667,19.14-42.667,42.667c0,23.526,19.14,42.667,42.667,42.667
			c23.526,0,42.667-19.14,42.667-42.667C443.733,306.975,424.593,287.834,401.067,287.834z M401.067,356.101
			c-14.114,0-25.6-11.486-25.6-25.6s11.486-25.6,25.6-25.6c14.114,0,25.6,11.486,25.6,25.6S415.181,356.101,401.067,356.101z"></path>
      </g>
    </g>
    <g>
      <g>
        <path d="M110.933,287.834c-23.526,0-42.667,19.14-42.667,42.667c0,23.526,19.14,42.667,42.667,42.667
			c23.526,0,42.667-19.14,42.667-42.667C153.6,306.975,134.46,287.834,110.933,287.834z M110.933,356.101
			c-14.114,0-25.6-11.486-25.6-25.6s11.486-25.6,25.6-25.6s25.6,11.486,25.6,25.6S125.047,356.101,110.933,356.101z"></path>
      </g>
    </g>
    <g>
      <g>
        <path d="M503.467,287.834v-51.2c0-3.678-2.347-6.938-5.837-8.098l-48.154-16.051c-18.133-30.711-43.059-59.938-98.142-69.589
			c-0.102-0.017-0.205-0.034-0.307-0.051c-101.717-14.063-178.091,8.883-227.123,68.224C67.217,211.888,8.533,229.765,8.533,262.234
			v25.6c-4.71,0-8.533,3.823-8.533,8.533v34.133c0,4.71,3.823,8.533,8.533,8.533h34.133c4.71,0,8.533-3.823,8.533-8.533
			c0-32.939,26.795-59.733,59.733-59.733s59.733,26.795,59.733,59.733c0,4.71,3.823,8.533,8.533,8.533h153.6
			c4.71,0,8.533-3.823,8.533-8.533c0-32.939,26.795-59.733,59.733-59.733c32.939,0,59.733,26.795,59.733,59.733
			c0,4.71,3.823,8.533,8.533,8.533h34.133c4.71,0,8.533-3.823,8.533-8.533v-34.133C512,291.657,508.177,287.834,503.467,287.834z
			 M392.951,175.672c14.822,9.088,25.865,21.086,35.447,35.362h-35.78L392.951,175.672z M290.133,155.9
			c18.253-0.247,37.666,0.973,58.411,3.84c10.274,1.809,19.302,4.378,27.426,7.569l-0.418,43.733h-85.419V155.9z M273.067,156.626
			v54.417H146.961C178.594,178.411,220.305,160.38,273.067,156.626z M494.933,321.968h-17.536
			c-4.258-38.349-36.864-68.267-76.331-68.267s-72.073,29.918-76.331,68.267H187.264c-4.258-38.349-36.864-68.267-76.331-68.267
			s-72.073,29.918-76.331,68.267H17.067v-17.067c4.71,0,8.533-3.823,8.533-8.533v-25.6h8.533c4.71,0,8.533-3.823,8.533-8.533
			c0-4.71-3.823-8.533-8.533-8.533h-4.42c11.546-12.535,46.865-25.6,98.287-25.6h314.342l44.058,14.686v10.914h-8.533
			c-4.71,0-8.533,3.823-8.533,8.533c0,4.71,3.823,8.533,8.533,8.533h8.533v25.6c0,4.71,3.823,8.533,8.533,8.533V321.968z"></path>
      </g>
    </g>
  </symbol>

  <symbol id="car-truck" viewBox="0 0 50 50">
    <path d="M48.406,21.063h-0.031l-4.125-5.5v-0.031L44.219,15.5C43.297,14.387,41.914,13,40,13h-8c-0.355,0-0.684,0.074-1,0.188c-0.727,0.375-2.004,1.245-2,2.719V25v0.95V27h-2V16c0-0.552-0.448-1-1-1h-4V4c0-0.552-0.448-1-1-1H9C8.448,3,8,3.448,8,4v11H4c-0.552,0-1,0.448-1,1v11H1c-0.552,0-1,0.448-1,1v6c0,2.206,1.794,4,4,4h4.09c0.478,2.833,2.942,5,5.91,5s5.431-2.167,5.91-5h13.184c0.477,2.836,2.941,5,5.906,5c2.96,0,5.429-2.172,5.909-5H45h1h1c1.66,0,3-1.34,3-3v-9.625C50,23.086,48.406,21.063,48.406,21.063z M44.344,19l2.438,3.25c0,0,0.906,1.551,1.094,2.75H38c-0.168,0-0.438-0.125-0.656-0.344S37,24.168,37,24v-4c0-0.504,0.594-1,1-1H44.344z M25,27H15V17h10V27z M10,5h10v10h-4h-2h-4V5z M5,17h4h4v10H5V17z M14,41c-2.206,0-4-1.794-4-4s1.794-4,4-4s4,1.794,4,4S16.206,41,14,41z M39,41c-2.223,0-4-1.777-4-4s1.777-4,4-4s4,1.777,4,4S41.223,41,39,41z M48,35c0,0.375-0.625,1-1,1h-1h-1h-0.091c-0.48-2.828-2.95-5-5.909-5c-2.965,0-5.43,2.164-5.906,5H33H19.91c-0.478-2.833-2.942-5-5.91-5s-5.431,2.167-5.91,5H4c-1.103,0-2-0.897-2-2v-5h2h10h2h10h4c0.552,0,1-0.448,1-1v-2.05V24v-8c0-0.375,0.625-1,1-1h8c0.785,0,1.891,0.84,2.656,1.75c0.008,0.012,0.023,0.02,0.031,0.031L42.844,17H38c-1.594,0-3,1.289-3,3v4c0,0.832,0.375,1.563,0.906,2.094S37.168,27,38,27h10V35z"/>
  </symbol>
  
  <symbol id="package-returned" viewBox="0 0 512 512">
<g>
	<path d="M336.884,124.068h-46.766v23.178h-21.847v-23.178h-47.053c-17.006,0-30.792,13.786-30.792,30.793v72.24l53.449,49.99
		c3.494,3.271,6.207,7.116,8.347,11.241h84.663c17.006,0,30.793-13.786,30.793-30.792V154.86
		C367.677,137.854,353.892,124.068,336.884,124.068z M292.657,213.346v45.25h-27.332v-45.25c-18.631,0-18.626,0-19.322,0
		l33.107-39.178l32.986,39.322C312.099,213.49,311.909,213.346,292.657,213.346z M11.757,63.349C11.757,28.362,40.12,0,75.106,0
		s63.349,28.362,63.349,63.349s-28.362,63.349-63.349,63.349C40.119,126.697,11.757,98.335,11.757,63.349z M230.728,321.411
		c-4.067,4.351-9.579,6.551-15.1,6.551c-5.057,0-10.128-1.848-14.116-5.572l-85.062-79.56v121.952
		c0,13.018-6.138,24.488-15.544,32.066l46.132,189.595c2.7,11.092-4.108,22.275-15.201,24.971c-1.64,0.404-3.286,0.585-4.9,0.585
		c-9.316,0-17.77-6.329-20.071-15.785l-26.49-108.867L65.458,591.602c-1.625,11.294-12.107,19.157-23.392,17.532
		c-11.304-1.615-19.152-12.082-17.538-23.387l26.796-187.233c-10.595-7.486-17.561-19.772-17.561-33.731V204.267
		c0-22.832,18.512-41.343,41.343-41.343c5.284,0,10.294,1.084,14.94,2.891c3.638,0.73,7.137,2.385,10.046,5.103l129.66,121.272
		C238.091,299.993,238.53,313.074,230.728,321.411z M536.896,126.697c-34.986,0-63.35-28.362-63.35-63.349S501.909,0,536.896,0
		s63.348,28.362,63.348,63.349S571.882,126.697,536.896,126.697z M382.247,292.19l129.66-121.272
		c2.908-2.718,6.408-4.373,10.047-5.103c4.645-1.808,9.654-2.891,14.939-2.891c22.832,0,41.344,18.511,41.344,41.343v160.515
		c0,13.959-6.967,26.245-17.561,33.731l26.795,187.233c1.615,11.305-6.232,21.771-17.537,23.387
		c-11.285,1.625-21.766-6.238-23.391-17.532l-14.918-104.255l-26.492,108.867C502.833,605.671,494.38,612,485.063,612
		c-1.615,0-3.26-0.182-4.9-0.585c-11.092-2.695-17.9-13.879-15.199-24.972l46.131-189.594c-9.406-7.578-15.545-19.049-15.545-32.067
		V242.83l-85.061,79.56c-3.988,3.726-9.061,5.572-14.117,5.572c-5.52,0-11.031-2.2-15.1-6.551
		C373.472,313.074,373.911,299.993,382.247,292.19z"/>
</g>



  </symbol>

  <symbol id="package-returned2" viewBox="0 0 612 612">
      <g>
        <g>
          <path d="M396.8,153.6c4.318,0,8.576,0.265,12.8,0.648V128c0-8.559-4.275-16.555-11.401-21.299l-76.8-51.2
            c-4.207-2.807-9.148-4.301-14.199-4.301H102.4c-5.052,0-9.993,1.493-14.199,4.301l-76.8,51.2C4.275,111.445,0,119.441,0,128v307.2
            c0,14.14,11.46,25.6,25.6,25.6H384c14.14,0,25.6-11.46,25.6-25.6h-384V140.8h128v166.4H256V140.8h128v13.449
            C388.224,153.865,392.482,153.6,396.8,153.6z M153.6,115.2H44.8l57.6-38.4h51.2V115.2z M230.4,281.6h-51.2V140.8h51.2V281.6z
            M230.4,115.2h-51.2V76.8h51.2V115.2z M256,115.2V76.8h51.2l57.6,38.4H256z"/>
        </g>
      </g>
      <g>
        <g>
          <path d="M396.8,179.2c-36.284,0-68.531,16.819-89.6,43.059V200.96c0-7.074-5.726-12.8-12.8-12.8c-7.074,0-12.8,5.726-12.8,12.8
            v51.2c0,7.074,5.726,12.8,12.8,12.8h51.2c7.074,0,12.8-5.726,12.8-12.8c0-7.074-5.726-12.8-12.8-12.8h-18.782
            c16.341-20.898,41.446-34.56,69.982-34.56c49.408,0,89.6,40.192,89.6,89.6S446.208,384,396.8,384
            c-24.704,0-46.72-10.436-62.925-26.675l-18.244,18.244c20.77,20.924,49.331,34.031,81.169,34.031
            c63.625,0,115.2-51.576,115.2-115.2S460.425,179.2,396.8,179.2z"/>
        </g>
      </g>
  </symbol>


    <symbol id="copy" viewBox="0 0 512 512">
      <g>
        <g>
          <path d="M509.116,189.867l-145.067-128c-1.741-1.536-3.883-2.227-6.101-2.116H307.2V8.533c0-4.719-3.823-8.533-8.533-8.533H8.533
        C3.823,0,0,3.814,0,8.533V435.2c0,4.719,3.823,8.533,8.533,8.533L128,443.742v59.725c0,4.719,3.823,8.533,8.533,8.533h366.933
        c4.71,0,8.533-3.814,8.533-8.533v-307.2C512,193.818,510.95,191.488,509.116,189.867z M366.933,87.177l113.963,100.557H366.933
        V87.177z M128,68.267v358.409l-110.933-0.009v-409.6h273.067v42.692l-152.841,0.009C132.446,59.255,128,63.292,128,68.267z
         M494.933,494.933H145.067v-59.264c0.009-0.154,0.009-0.299,0.009-0.461V76.834l204.792-0.017v119.45
        c0,2.27,0.896,4.437,2.5,6.033c1.604,1.596,3.772,2.5,6.033,2.5h136.533V494.933z"></path>
        </g>
      </g>
    </symbol>



      <symbol id="edit" viewBox="0 0 59.985 59.985">
        <path d="M59.985,7c0-1.87-0.728-3.627-2.05-4.949S54.855,0,52.985,0s-3.627,0.729-4.95,2.051l-1.414,1.414l-4.243,4.242l0,0
      L4.536,45.551c-0.11,0.109-0.192,0.243-0.242,0.391L0.051,58.669c-0.12,0.359-0.026,0.756,0.242,1.023
      c0.19,0.19,0.446,0.293,0.707,0.293c0.106,0,0.212-0.017,0.316-0.052l12.728-4.243c0.147-0.049,0.281-0.132,0.391-0.241
      l37.843-37.843l0,0l4.242-4.242l0,0l1.415-1.415C59.257,10.627,59.985,8.87,59.985,7z M52.278,14.778l-7.071-7.071l1.414-1.414
      l7.071,7.071L52.278,14.778z M5.68,48.109l6.197,6.196l-9.296,3.099L5.68,48.109z M13.728,53.328l-7.071-7.07L43.793,9.121
      l7.071,7.071L13.728,53.328z M55.106,11.95l-7.071-7.071l1.414-1.414C50.394,2.521,51.65,2,52.985,2s2.591,0.521,3.536,1.465
      s1.464,2.2,1.464,3.535s-0.52,2.591-1.464,3.535L55.106,11.95z"></path>
      </symbol>



        <symbol id="package-carrier" viewBox="0 0 485.526 485.526">
              <g>
                <path d="M419.323,296.166L253.86,368.183c-1.129-0.525-2.168-1.219-3.313-1.678L112.263,48.796
              c-11.2-25.757-41.257-37.562-67.031-26.37l-19.956,8.686c-12.372,5.395-18.04,19.793-12.643,32.162
              c5.375,12.38,19.79,18.059,32.152,12.656l19.949-8.686c0.846-0.414,2.322,0.159,2.723,1.058l131.18,301.362
              c-28.034,15.033-40.478,49.081-27.572,78.762c13.604,31.253,49.986,45.559,81.221,31.956
              c28.641-12.467,42.768-43.991,34.521-73.226l152.025-66.171c12.373-5.386,18.041-19.785,12.645-32.161
              C446.118,296.476,431.764,290.803,419.323,296.166z"></path>
                <g>
                  <path d="M386.001,1.679L174.646,92.805c-10.381,4.476-15.172,16.521-10.695,26.9l9.266,21.494
                c1.347,3.122,4.967,4.561,8.09,3.213l14.629-6.307l69.361,160.876c3.306,7.665,12.229,11.211,19.889,7.907l180.611-77.87
                c7.66-3.303,11.206-12.225,7.902-19.889L404.335,48.253l14.618-6.303c3.126-1.347,4.563-4.965,3.218-8.087l-9.268-21.494
                C408.428,1.989,396.382-2.798,386.001,1.679z M456.081,213.645l-175.406,75.627l-68.242-158.28L387.84,55.365L456.081,213.645z"></path>
                  <path d="M275.271,157.773l88.898-38.329c6.829-2.945,9.985-10.873,7.038-17.707c-2.945-6.833-10.876-9.982-17.705-7.037
                l-88.9,38.329c-6.83,2.945-9.984,10.873-7.039,17.706C260.511,157.569,268.442,160.718,275.271,157.773z"></path>
                </g>
              </g>
        </symbol>

          <symbol id="transport-cart" viewBox="0 0 612.001 612.001">
            <g>
              <g>
                <path d="M610.795,353.712c-3.723-10.128-14.971-15.309-25.073-11.579l-254.957,93.84c-15.901-23.296-43.434-36.073-71.469-33.209
              L141.387,82.418L23.848,55.757C13.368,53.362,2.869,59.962,0.487,70.48S4.692,91.465,15.21,93.847l96.854,21.974l110.64,300.604
              c-27.937,19.631-40.421,56.192-28.06,89.746c14.73,40.011,59.102,60.52,99.119,45.791c33.443-12.315,53.165-45.348,50.171-79.221
              l255.282-93.951C609.33,375.055,614.518,363.833,610.795,353.712z M281.408,518.402c-21.48,7.915-45.309-3.105-53.217-24.578
              c-7.902-21.493,3.098-45.309,24.584-53.224c21.48-7.908,45.316,3.105,53.224,24.578
              C313.907,486.664,302.888,510.487,281.408,518.402z"></path>
                <path d="M558.703,295.919L476.86,73.539l-101.892,37.505l22.521,61.178l-41.065,15.107l-22.515-61.171l-101.892,37.498
              l81.844,222.379L558.703,295.919z M502.472,255.01l8.989,24.435l-90.969,33.482l-8.989-24.435L502.472,255.01z"></path>
              </g>
            </g>
          </symbol>


            <symbol id="worker-loading-boxes" viewBox="0 0 56.93 56.93">
              <g>
                <path d="M48.654,40.217l-11.771,5.697l-4.547-9.395l11.771-5.697L48.654,40.217z M45.801,16.3l9.722,20.089
              l-5.885,2.848l-9.723-20.088L45.801,16.3z M40.618,47.512l16.312-7.604l-0.381-1.603L38.864,46.51
              c-0.838-0.271-1.756-0.332-2.675-0.11c-0.16,0.037-0.317,0.084-0.471,0.135L23.575,23.577c1.507-1.646,0.112-5.235-2.842-4.859
              c-0.291,0.037-0.396,0.068-0.603,0.087c-2.797-0.194-5.6-1.117-8.139-2.459c-0.016-0.294-0.028-0.587-0.045-0.881
              c-0.148-2.42-1.555-4.553-4.191-4.704c-2.205-0.126-4.852,1.764-4.704,4.191c0.35,5.73,0.346,7.134,0.328,12.627l-0.057-0.002
              c0.035,0.73,0.069,1.94,0.107,2.672c0.055,1.136,0.455,2.048,1.053,2.735c0.005,0.008,0.006,0.02,0.013,0.026
              c0.707,1.087,0.65,2.241,1.215,3.403c-1.043,4.955-4.331,9.906-5.605,14.812c-0.934,3.603,4.624,5.127,5.558,1.532
              c1.284-4.941,5.213-9.938,6.266-14.934c0.054-0.254,0.073-0.498,0.069-0.729c3.46,3.575,5.784,9.387,6.221,14.463
              c0.316,3.678,6.082,3.706,5.764,0c-0.729-8.468-5.046-16.685-11.671-21.777c-0.021-0.426-0.041-0.854-0.062-1.278l0.022,0.002
              c0.01-3.447,0.018-2.288-0.05-5.734c2.385,0.913,4.895,1.494,7.413,1.687l-0.004,0.07c0.894-0.007,1.467-0.071,2.35-0.183
              c0.164-0.021,0.307-0.063,0.451-0.104l11.761,23.151c-1.419,1.167-2.139,3.076-1.686,4.979c0.631,2.662,3.312,4.312,5.977,3.682
              c2.662-0.634,4.312-3.314,3.68-5.977C41.918,49.043,41.36,48.164,40.618,47.512z M37.722,52.854
              c-0.898,0.213-1.803-0.344-2.016-1.24c-0.214-0.897,0.344-1.804,1.24-2.017c0.896-0.214,1.803,0.345,2.016,1.241
              C39.175,51.737,38.62,52.64,37.722,52.854z M38.93,20.127l4.548,9.395l-11.771,5.697l-4.548-9.394L38.93,20.127z M7.667,0.745
              c2.392,0,4.331,1.939,4.331,4.331s-1.939,4.331-4.331,4.331S3.336,7.468,3.336,5.076S5.275,0.745,7.667,0.745z"></path>
              </g>
            </symbol>

<!-- Дві повітрені кульки -->
<symbol id="birthday" viewBox="0 0 512 512">
	<rect x="188.591" y="345.249" class="st0" width="14.5" height="166.751" />
	<rect x="304.591" y="374.249" class="st0" width="14.5" height="137.751" />
	<path class="st0"
    d="M221.619,155.247c-1.352-5.551-2.152-10.514-2.464-14.876c-0.312-4.396-0.135-8.17,0.46-11.285
		c0.835-4.496-2.131-8.829-6.634-9.672c-4.496-0.842-8.828,2.131-9.657,6.62c-0.892,4.821-1.104,9.982-0.708,15.512
		c0.383,5.494,1.374,11.328,2.889,17.616c2.846,11.718,8.609,22.062,16.044,31.054c2.916,3.512,8.142,4.029,11.661,1.111
		c3.533-2.924,4.022-8.149,1.125-11.682C228.182,172.196,223.771,164.118,221.619,155.247z"
  />
	<path class="st0"
    d="M224.061,102.252c5.877,0,10.634-4.758,10.634-10.634c0-5.883-4.758-10.642-10.634-10.642
		c-5.884,0-10.641,4.758-10.641,10.642C213.421,97.494,218.178,102.252,224.061,102.252z"
  />
	<path class="st0"
    d="M454.98,51.862c-16.964-18.854-40.385-27.917-64.309-27.839h-1.961c-15.512,0.212-28.781,4.347-39.798,10.584
		c-16.751-24.002-42.268-35.167-69.165-34.586c-25.085,0.439-42.998,11.166-56.259,24.724c-13.197,1.67-25.955,6.237-37.198,13.92
		c-13.99-19.428-34.509-38.063-67.785-38.644C71.959-0.92,29.761,32.866,29.761,107.54c0,73.662,63.296,125.864,102.372,152.471
		c15.732,10.804,34.006,19.867,45.752,25.156c-5.876,10.734-12.688,22.982-14.649,26.246c-3.625,6.018-1.232,14.5,4.786,14.5h56.33
		c6.018,0,8.482-8.482,4.857-14.5c-1.884-3.044-7.901-13.99-13.551-24.144c4.488-1.954,10.655-4.786,17.686-8.34
		c3.845,2.833,7.541,5.367,11.024,7.76c14.422,9.862,29.142,18.054,39.798,23.343c-1.522,3.193-2.967,6.386-4.277,9.431
		c-1.373,2.966-2.605,5.799-3.554,7.972c-0.502,1.09-0.942,2.032-1.303,2.684c-0.29,0.722-0.581,1.232-0.581,1.232
		c-2.102,3.484-2.973,7.18-2.973,10.734c0,3.838,0.948,7.682,3.484,11.158c1.302,1.742,2.973,3.413,5.147,4.574
		c2.174,1.154,4.716,1.812,7.25,1.812h51.331c2.535,0,5.076-0.658,7.25-1.812c3.264-1.812,5.438-4.496,6.74-7.25
		c1.31-2.683,1.883-5.586,1.883-8.482c0-3.554-0.941-7.25-2.966-10.734c0,0-0.291-0.51-0.581-1.232
		c-1.232-2.535-3.412-7.54-5.877-12.978c-1.012-2.323-2.174-4.716-3.264-7.109c10.663-5.289,25.305-13.481,39.805-23.343
		c18.776-12.758,43.57-31.826,64.018-57.059c20.376-25.156,36.54-56.91,36.54-94.541C482.239,98.698,472.015,70.71,454.98,51.862z
		M106.977,181.053c-4.786,3.413-11.455,2.323-14.861-2.464c-8.702-12.178-15.158-25.956-17.693-41.248
		c-1.374-8.122-2.102-15.733-2.102-22.77c0-7.101,0.729-13.7,2.322-19.789c1.452-5.657,7.32-9.063,12.978-7.611
		c5.65,1.522,9.063,7.321,7.611,12.978c-1.012,3.986-1.593,8.772-1.593,14.422c0,5.586,0.502,12.037,1.734,19.287
		c1.962,11.526,6.889,22.26,14.069,32.334C112.847,170.978,111.764,177.648,106.977,181.053z M121.407,53.816
		c-3.335,2.032-5.806,4.136-7.618,6.38c-3.766,4.574-10.436,5.296-15.003,1.522c-4.566-3.696-5.225-10.365-1.522-14.932
		c3.547-4.347,7.972-8.121,13.12-11.165c5.006-3.044,11.526-1.452,14.57,3.625C127.998,44.251,126.405,50.772,121.407,53.816z
		M430.257,217.162c-18.486,22.912-41.83,40.966-59.813,53.144c-9.062,6.16-18.416,11.817-26.607,16.313
		c-8.192,4.496-15.152,7.831-19.287,9.643c-2.613,1.161-4.567,3.264-5.508,5.947c-0.871,2.606-0.651,5.509,0.722,7.972
		c2.613,4.716,5.657,11.385,8.27,17.325c1.303,2.974,2.534,5.728,3.625,8.122c0.502,1.161,1.012,2.251,1.444,3.193l0.51,0.942
		h-41.249l0.503-0.942c1.67-3.335,3.774-8.269,6.167-13.558c2.315-5.296,4.998-10.946,7.25-15.081
		c1.373-2.463,1.593-5.366,0.722-7.972c-0.942-2.683-2.903-4.786-5.508-5.947c-8.27-3.555-27.917-13.558-45.894-25.956h-0.07
		c-0.871-0.581-1.742-1.232-2.684-1.884c-17.544-12.107-39.514-29.51-57.058-51.26c-18.564-22.982-32.193-50.389-32.193-82.073
		c0.078-32.838,9.14-55.458,22.189-69.888c13.049-14.43,30.452-21.319,49.518-21.389l1.664,0.07
		c14.72,0.291,25.814,4.574,35.238,11.024c9.282,6.45,16.744,15.152,22.982,24.285c1.884,2.903,4.347,5.367,7.321,7.18
		c2.902,1.883,6.378,3.115,10.223,3.193h0.51c3.838-0.078,7.392-1.31,10.294-3.193c2.974-1.813,5.438-4.277,7.321-7.18
		c6.238-9.133,13.63-17.834,22.982-24.285c1.452-1.012,2.974-1.961,4.567-2.824c8.412-4.864,18.196-7.98,30.671-8.199l1.593-0.07
		c19.067,0.07,36.541,6.96,49.59,21.389c13.048,14.429,22.111,37.05,22.111,69.888C462.372,166.773,448.813,194.18,430.257,217.162z"
  />
</symbol>


<!-- людина крокує -->
<symbol id="man-go" viewBox="-6.64 0 31.887 31.887">
  <g id="Group_3" data-name="Group 3" transform="translate(-165.116 -163.037)">
    <path id="Path_9" data-name="Path 9" d="M183.189,178.211l-3.634-2.43-2.294-4.642c-.509-1.032-.959-1.629-1.927-1.844a2.613,2.613,0,0,0-2.081.435c-.017.012-.035.022-.051.034l-5.436,4.306a1.239,1.239,0,0,0-.434.7l-1.043,5.018a1.216,1.216,0,0,0,.945,1.435,1.165,1.165,0,0,0,.247.026,1.216,1.216,0,0,0,1.189-.967l.952-4.586,1.941-1.537-1.254,5.664-1.491,6.719-3.455,5.746a1.736,1.736,0,1,0,2.975,1.789l3.6-5.988a1.733,1.733,0,0,0,.206-.518l1.015-4.58,3.848,4.444,1.2,6.083a1.738,1.738,0,0,0,1.7,1.4,1.88,1.88,0,0,0,.339-.033,1.735,1.735,0,0,0,1.365-2.039l-1.288-6.537a1.709,1.709,0,0,0-.391-.8l-4.421-5.108,1.128-5.039.878,1.779a1.217,1.217,0,0,0,.416.475l3.906,2.607a1.214,1.214,0,1,0,1.347-2.019Z"/>
    <path id="Path_10" data-name="Path 10" d="M176.122,168.244a2.6,2.6,0,1,0-2.6-2.6A2.6,2.6,0,0,0,176.122,168.244Z"/>
  </g>
</symbol>

<!-- Logo коробки під дахом-->
<symbol id="logo" viewBox="0 0 15 15">
  <path d="M13.5,5c-0.0762,0.0003-0.1514-0.0168-0.22-0.05L7.5,2L1.72,4.93C1.4632,5.0515,1.1565,4.9418,1.035,4.685&#xA;&#x9;S1.0232,4.1215,1.28,4L7.5,0.92L13.72,4c0.2761,0.0608,0.4508,0.3339,0.39,0.61C14.0492,4.8861,13.7761,5.0608,13.5,5z M5,10H2v3h3&#xA;&#x9;V10z M9,10H6v3h3V10z M13,10h-3v3h3V10z M11,6H8v3h3V6z M7,6H4v3h3V6z"/>
</symbol>


<symbol id="arrow-down" viewBox="0 0 32 32">
  <path d="M26.29,20.29,18,28.59V0H16V28.59L7.71,20.29,6.29,21.71l10,10a1,1,0,0,0,1.41,0l10-10Z"/>
</symbol>

<symbol id="arrow-exchange" viewBox="0 0 32 32">
  <path d="M16.71,7.29l-7-7a1,1,0,0,0-1.41,0l-7,7L2.71,8.71,8,3.41V32h2V3.41l5.29,5.29Z"/><path d="M29.29,23.29,24,28.59V0H22V28.59l-5.29-5.29-1.41,1.41,7,7a1,1,0,0,0,1.41,0l7-7Z"/>
</symbol>

<symbol id="lock-open" viewBox="0 0 32 32">
  <path d="M25 12.034l-14.28 0-0.518-2.321c-0.883-3.293 0.65-6.576 4.159-7.516 3.473-0.93 6.534 1.061 7.432 4.41l0.425 1.686c0.143 0.534 0.691 0.85 1.225 0.707s0.85-0.691 0.707-1.225l-0.425-1.687c-1.187-4.433-5.325-7.045-9.881-5.824-4.574 1.226-6.741 5.607-5.573 9.966l0.402 1.803h-1.673c-2.206 0-4 1.794-4 4v12c0 2.206 1.794 4 4 4h18c2.206 0 4-1.794 4-4v-12c0-2.206-1.794-4-4-4zM27 28.035c0 1.102-0.898 2-2 2h-18c-1.103 0-2-0.898-2-2v-12c0-1.102 0.897-2 2-2h18c1.102 0 2 0.898 2 2v12zM16 18.035c-1.104 0-2 0.895-2 2 0 0.738 0.405 1.376 1 1.723v3.277c0 0.552 0.448 1 1 1s1-0.448 1-1v-3.277c0.595-0.346 1-0.985 1-1.723 0-1.105-0.895-2-2-2z"></path>
</symbol>

<symbol id="lock-close" viewBox="0 0 32 32">
  <path d="M25 12h-1v-3.816c0-4.589-3.32-8.184-8.037-8.184-4.736 0-7.963 3.671-7.963 8.184v3.816h-1c-2.206 0-4 1.794-4 4v12c0 2.206 1.794 4 4 4h18c2.206 0 4-1.794 4-4v-12c0-2.206-1.794-4-4-4zM10 8.184c0-3.409 2.33-6.184 5.963-6.184 3.596 0 6.037 2.716 6.037 6.184v3.816h-12v-3.816zM27 28c0 1.102-0.898 2-2 2h-18c-1.103 0-2-0.898-2-2v-12c0-1.102 0.897-2 2-2h18c1.102 0 2 0.898 2 2v12zM16 18c-1.104 0-2 0.895-2 2 0 0.738 0.405 1.376 1 1.723v3.277c0 0.552 0.448 1 1 1s1-0.448 1-1v-3.277c0.595-0.346 1-0.985 1-1.723 0-1.105-0.895-2-2-2z"></path>
</symbol>

<symbol id="arrow-up" viewBox="0 0 32 32">
  <path d="M26.71,10.29l-10-10a1,1,0,0,0-1.41,0l-10,10,1.41,1.41L15,3.41V32h2V3.41l8.29,8.29Z"/>
</symbol>

<symbol id="add" viewBox="0 0 24 24">
    <line fill="none" stroke="#000000" stroke-linecap="round" stroke-linejoin="round" stroke-width="2" x1="12" x2="12" y1="19" y2="5"/>
    <line fill="none" stroke="#000000" stroke-linecap="round" stroke-linejoin="round" stroke-width="2" x1="5" x2="19" y1="12" y2="12"/>
</symbol>

<symbol id="add-item"  viewBox="0 0 24 24">
    <path fill-rule="evenodd" clip-rule="evenodd" d="M3.75 4.5L4.5 3.75H10.5L11.25 4.5V10.5L10.5 11.25H4.5L3.75 10.5V4.5ZM5.25 5.25V9.75H9.75V5.25H5.25ZM13.5 3.75L12.75 4.5V10.5L13.5 11.25H19.5L20.25 10.5V4.5L19.5 3.75H13.5ZM14.25 9.75V5.25H18.75V9.75H14.25ZM17.25 20.25H15.75V17.25H12.75V15.75H15.75V12.75H17.25V15.75H20.25V17.25H17.25V20.25ZM4.5 12.75L3.75 13.5V19.5L4.5 20.25H10.5L11.25 19.5V13.5L10.5 12.75H4.5ZM5.25 18.75V14.25H9.75V18.75H5.25Z"></path>
</symbol>

<symbol id="add-user" viewBox="0 0 24 24">
  <path d="M17,21V19a4,4,0,0,0-4-4H5a4,4,0,0,0-4,4v2" fill="none" stroke="#000000" stroke-linecap="round" stroke-linejoin="round" stroke-width="1"/>
  <circle cx="9" cy="7" fill="none" r="4" stroke="#000000" stroke-linecap="round" stroke-linejoin="round" stroke-width="1"/>
  <line fill="none" stroke="#000000" stroke-linecap="round" stroke-linejoin="round" stroke-width="1" x1="17" x2="23" y1="11" y2="11"/>
  <line fill="none" stroke="#000000" stroke-linecap="round" stroke-linejoin="round" stroke-width="1" x1="20" x2="20" y1="8" y2="14"/>
  </symbol>

<!-- <symbol id="trash-small" viewBox="0 0 50 50">
<path d="M 21.857422 7 C 20.282422 7 19 8.2824219 19 9.8574219 L 19 13 L 10.5 13 C 10.224 13 10 13.224 10 13.5 C 10 13.776 10.224 14 10.5 14 L 12.925781 14 L 14.292969 38.607422 C 14.399969 40.509422 15.974906 42 17.878906 42 L 32.121094 42 C 34.025094 42 35.601031 40.510375 35.707031 38.609375 L 37.074219 14 L 39.5 14 C 39.776 14 40 13.776 40 13.5 C 40 13.224 39.776 13 39.5 13 L 31 13 L 31 9.8574219 C 31 8.2824219 29.717578 7 28.142578 7 L 21.857422 7 z M 21.857422 8 L 28.142578 8 C 29.166578 8 30 8.8334219 30 9.8574219 L 30 13 L 20 13 L 20 9.8574219 C 20 8.8334219 20.832422 8 21.857422 8 z M 13.927734 14 L 36.072266 14 L 34.708984 38.552734 C 34.631984 39.924734 33.495094 41 32.121094 41 L 17.878906 41 C 16.504906 41 15.368016 39.925734 15.291016 38.552734 L 13.927734 14 z M 19.169922 19 C 18.894922 19.009 18.6775 19.241578 18.6875 19.517578 L 19.242188 35.517578 C 19.252187 35.787578 19.473188 35.998047 19.742188 35.998047 L 19.761719 35.998047 C 20.036719 35.989047 20.252188 35.758422 20.242188 35.482422 L 19.6875 19.482422 C 19.6785 19.206422 19.436922 18.962 19.169922 19 z M 25 19 C 24.724 19 24.5 19.224 24.5 19.5 L 24.5 35.431641 C 24.5 35.707641 24.724 35.931641 25 35.931641 C 25.276 35.931641 25.5 35.707641 25.5 35.431641 L 25.5 19.5 C 25.5 19.224 25.276 19 25 19 z M 30.830078 19 C 30.545078 18.98 30.3225 19.207422 30.3125 19.482422 L 29.755859 35.482422 C 29.745859 35.758422 29.963281 35.989047 30.238281 35.998047 L 30.255859 35.998047 C 30.524859 35.998047 30.745859 35.787578 30.755859 35.517578 L 31.3125 19.517578 C 31.3225 19.241578 31.105078 19.009 30.830078 19 z"></path>
</symbol> -->
<!-- <symbol id="trash-small" viewBox="0 0 24 24">
  <path d="M 9.5 2 A 0.750075 0.750075 0 0 0 8.7597656 2.6269531 L 8.3652344 5 L 8 5 L 3.6210938 5 A 0.750075 0.750075 0 0 0 3.3808594 5 L 2.75 5 A 0.750075 0.750075 0 1 0 2.75 6.5 L 2.796875 6.5 L 3.6660156 19.888672 C 3.7385515 21.06759 4.7300804 22 5.9121094 22 L 18.087891 22 C 19.26929 22 20.261504 21.068172 20.333984 19.888672 L 20.333984 19.886719 L 21.203125 6.5 L 21.25 6.5 A 0.750075 0.750075 0 1 0 21.25 5 L 20.623047 5 A 0.750075 0.750075 0 0 0 20.378906 5 L 16 5 L 15.634766 5 L 15.240234 2.6269531 A 0.750075 0.750075 0 0 0 14.5 2 L 9.5 2 z M 10.134766 3.5 L 13.865234 3.5 L 14.115234 5 L 9.8847656 5 L 10.134766 3.5 z M 4.3007812 6.5 L 8 6.5 L 9 6.5 L 14.996094 6.5 L 16 6.5 L 19.699219 6.5 L 18.835938 19.792969 A 0.750075 0.750075 0 0 0 18.835938 19.794922 C 18.811476 20.198483 18.491862 20.5 18.087891 20.5 L 5.9121094 20.5 C 5.5087689 20.5 5.1884685 20.197112 5.1640625 19.794922 A 0.750075 0.750075 0 0 0 5.1640625 19.792969 L 4.3007812 6.5 z M 7.7636719 8.9902344 A 0.750075 0.750075 0 0 0 7.0019531 9.8007812 L 7.5019531 17.300781 A 0.750075 0.750075 0 1 0 8.9980469 17.199219 L 8.4980469 9.6992188 A 0.750075 0.750075 0 0 0 7.7636719 8.9902344 z M 11.988281 8.9902344 A 0.750075 0.750075 0 0 0 11.25 9.75 L 11.25 17.25 A 0.750075 0.750075 0 1 0 12.75 17.25 L 12.75 9.75 A 0.750075 0.750075 0 0 0 11.988281 8.9902344 z M 16.214844 8.9902344 A 0.750075 0.750075 0 0 0 15.501953 9.6992188 L 15.001953 17.199219 A 0.750075 0.750075 0 1 0 16.498047 17.300781 L 16.998047 9.8007812 A 0.750075 0.750075 0 0 0 16.214844 8.9902344 z"></path>
</symbol> -->
<symbol id="trash-small" viewBox="0 0 32 32">
  <path d="M 15 4 C 14.476563 4 13.941406 4.183594 13.5625 4.5625 C 13.183594 4.941406 13 5.476563 13 6 L 13 7 L 7 7 L 7 9 L 8 9 L 8 25 C 8 26.644531 9.355469 28 11 28 L 23 28 C 24.644531 28 26 26.644531 26 25 L 26 9 L 27 9 L 27 7 L 21 7 L 21 6 C 21 5.476563 20.816406 4.941406 20.4375 4.5625 C 20.058594 4.183594 19.523438 4 19 4 Z M 15 6 L 19 6 L 19 7 L 15 7 Z M 10 9 L 24 9 L 24 25 C 24 25.554688 23.554688 26 23 26 L 11 26 C 10.445313 26 10 25.554688 10 25 Z M 12 12 L 12 23 L 14 23 L 14 12 Z M 16 12 L 16 23 L 18 23 L 18 12 Z M 20 12 L 20 23 L 22 23 L 22 12 Z"></path>
</symbol>


<symbol id="trash" viewBox="0 0 16 16">
  <path d="M6.5 1h3a.5.5 0 0 1 .5.5v1H6v-1a.5.5 0 0 1 .5-.5M11 2.5v-1A1.5 1.5 0 0 0 9.5 0h-3A1.5 1.5 0 0 0 5 1.5v1H1.5a.5.5 0 0 0 0 1h.538l.853 10.66A2 2 0 0 0 4.885 16h6.23a2 2 0 0 0 1.994-1.84l.853-10.66h.538a.5.5 0 0 0 0-1zm1.958 1-.846 10.58a1 1 0 0 1-.997.92h-6.23a1 1 0 0 1-.997-.92L3.042 3.5zm-7.487 1a.5.5 0 0 1 .528.47l.5 8.5a.5.5 0 0 1-.998.06L5 5.03a.5.5 0 0 1 .47-.53Zm5.058 0a.5.5 0 0 1 .47.53l-.5 8.5a.5.5 0 1 1-.998-.06l.5-8.5a.5.5 0 0 1 .528-.47M8 4.5a.5.5 0 0 1 .5.5v8.5a.5.5 0 0 1-1 0V5a.5.5 0 0 1 .5-.5"/>
</symbol>


<symbol id="copy2" viewBox="0 0 55.699 55.699">
  <path style="fill:#010002;" d="M51.51,18.001c-0.006-0.085-0.022-0.167-0.05-0.248c-0.012-0.034-0.02-0.067-0.035-0.1
  c-0.049-0.106-0.109-0.206-0.194-0.291v-0.001l0,0c0,0-0.001-0.001-0.001-0.002L34.161,0.293c-0.086-0.087-0.188-0.148-0.295-0.197
  c-0.027-0.013-0.057-0.02-0.086-0.03c-0.086-0.029-0.174-0.048-0.265-0.053C33.494,0.011,33.475,0,33.453,0H22.177
  c-3.678,0-6.669,2.992-6.669,6.67v1.674h-4.663c-3.678,0-6.67,2.992-6.67,6.67V49.03c0,3.678,2.992,6.669,6.67,6.669h22.677
  c3.677,0,6.669-2.991,6.669-6.669v-1.675h4.664c3.678,0,6.669-2.991,6.669-6.669V18.069C51.524,18.045,51.512,18.025,51.51,18.001z
   M34.454,3.414l13.655,13.655h-8.985c-2.575,0-4.67-2.095-4.67-4.67V3.414z M38.191,49.029c0,2.574-2.095,4.669-4.669,4.669H10.845
  c-2.575,0-4.67-2.095-4.67-4.669V15.014c0-2.575,2.095-4.67,4.67-4.67h5.663h4.614v10.399c0,3.678,2.991,6.669,6.668,6.669h10.4
  v18.942L38.191,49.029L38.191,49.029z M36.777,25.412h-8.986c-2.574,0-4.668-2.094-4.668-4.669v-8.985L36.777,25.412z
   M44.855,45.355h-4.664V26.412c0-0.023-0.012-0.044-0.014-0.067c-0.006-0.085-0.021-0.167-0.049-0.249
  c-0.012-0.033-0.021-0.066-0.036-0.1c-0.048-0.105-0.109-0.205-0.194-0.29l0,0l0,0c0-0.001-0.001-0.002-0.001-0.002L22.829,8.637
  c-0.087-0.086-0.188-0.147-0.295-0.196c-0.029-0.013-0.058-0.021-0.088-0.031c-0.086-0.03-0.172-0.048-0.263-0.053
  c-0.021-0.002-0.04-0.013-0.062-0.013h-4.614V6.67c0-2.575,2.095-4.67,4.669-4.67h10.277v10.4c0,3.678,2.992,6.67,6.67,6.67h10.399
  v21.616C49.524,43.26,47.429,45.355,44.855,45.355z"/>
</symbol>

<symbol id="done" viewBox="0 -960 960 960">
  <path d="M378-246 154-470l43-43 181 181 384-384 43 43-427 427Z"/>
</symbol>

<symbol id="done_all" viewBox="0 -960 960 960">
  <path d="M294-242 70-466l43-43 181 181 43 43-43 43Zm170 0L240-466l43-43 181 181 384-384 43 43-427 427Zm0-170-43-43 257-257 43 43-257 257Z"/>
</symbol>

<symbol id="filter_off" viewBox="0 -960 960 960">
  <path d="m580-465-43-43 183-232H305l-60-60h527q21 0 31 19t-4 36L580-465ZM813-61 560-314v114q0 17-11.5 28.5T520-160h-80q-17 0-28.5-11.5T400-200v-274L61-813l43-43 752 752-43 43ZM537-508Z"/>
</symbol>

<symbol id="exit-door" viewBox="0 0 520.349 520.349">
  <g>
    <path d="M445.223,0H142.589c-6.683,0-12.105,5.423-12.105,12.105v180.979h16.65c-5.006-6.392-7.725-14.224-7.725-22.467
      c-0.006-9.764,3.8-18.943,10.708-25.845c1.421-1.421,2.973-2.687,4.583-3.845V24.211h278.417v8.697l-127.104,92.285v395.155
      l127.796-92.787c1.626,4.77,6.095,8.228,11.414,8.228c6.685,0,12.105-5.426,12.105-12.105V12.105
      C457.328,5.417,451.907,0,445.223,0z M354.031,331.973c-5.71,0-10.468-7.046-11.691-16.485h-13.63v-10.592h13.819
      c1.448-8.86,6.017-15.38,11.49-15.38c6.638,0,12.011,9.498,12.011,21.231C366.042,322.468,360.663,331.973,354.031,331.973z
       M150.122,314.471c1.424,1.412,2.967,2.678,4.572,3.824v105.389c0,6.68-5.426,12.105-12.105,12.105
      c-6.683,0-12.105-5.426-12.105-12.105V266.139h16.65C135.948,280.466,136.935,301.271,150.122,314.471z M236.706,218.385
      c4.817,4.817,4.817,12.608,0,17.425l-58.995,59.001c-2.403,2.394-5.556,3.605-8.709,3.611c-3.153-0.006-6.307-1.206-8.71-3.611
      c-4.811-4.817-4.805-12.613,0-17.419l37.974-37.977H75.336c-6.803,0-12.315-5.512-12.315-12.315
      c0-6.803,5.506-12.318,12.321-12.318h122.917l-37.968-37.974c-4.805-4.805-4.811-12.608,0-17.413
      c4.812-4.812,12.614-4.812,17.425,0L236.706,218.385z"/>
  </g>
</symbol>

<symbol id="exit" viewBox="0 0 20 20">
  <path d="M 0 1 L 0 20 L 12 20 L 12 16 L 11 16 L 11 19 L 1 19 L 1 2 L 11 2 L 11 5 L 12 5 L 12 1 L 0 1 z M 15 7 L 18 10 L 5 10 L 5 11 L 18 11 L 15 14 L 16.5 14 L 20 10.5 L 16.5 7 L 15 7 z " />
</symbol>

<symbol id="login_in" viewBox="0 0 20 20">
  <path d="M 8 1 L 8 5 L 9 5 L 9 2 L 19 2 L 19 19 L 9 19 L 9 16 L 8 16 L 8 20 L 20 20 L 20 1 L 8 1 z M 10 7 L 13 10 L 0 10 L 0 11 L 13 11 L 10 14 L 11.5 14 L 15 10.5 L 11.5 7 L 10 7 z " />
</symbol>

<symbol id="login" viewBox="0 0 32 32">
  <path d="M16.642 20.669c-0.391 0.39-0.391 1.023-0 1.414 0.195 0.195 0.451 0.293 0.707 0.293s0.512-0.098 0.707-0.293l5.907-6.063-5.907-6.063c-0.39-0.39-1.023-0.39-1.414 0s-0.391 1.024 0 1.414l3.617 3.617h-19.264c-0.552 0-1 0.448-1 1s0.448 1 1 1h19.326zM30.005 0h-18c-1.105 0-2.001 0.895-2.001 2v9h2.014v-7.78c0-0.668 0.542-1.21 1.21-1.21h15.522c0.669 0 1.21 0.542 1.21 1.21l0.032 25.572c0 0.668-0.541 1.21-1.21 1.21h-15.553c-0.668 0-1.21-0.542-1.21-1.21v-7.824l-2.014 0.003v9.030c0 1.105 0.896 2 2.001 2h18c1.105 0 2-0.895 2-2v-28c-0.001-1.105-0.896-2-2-2z"></path>
</symbol>

<symbol id="back" viewBox="0 0 24 24">
  <path
        d="M3.92399915,11.7649995 C3.77764399,11.9991677 3.4691688,12.0703543 3.23500053,11.9239992 C3.00083226,11.777644 2.92964568,11.4691688 3.07600085,11.2350005 C4.72258653,8.60046343 7.61021891,7 10.7169906,7 L11,7 C15.7839371,7 19.7251234,10.7427037 19.9862823,15.4990868 C19.9927927,15.617659 19.9970334,16.2631224 19.9999986,17.4988002 C20.0006612,17.7749418 19.7773414,17.9993359 19.5011998,17.9999986 C19.2250582,18.0006612 19.0006641,17.7773414 19.0000014,17.5011998 C18.9971538,16.3145297 18.9927506,15.6443258 18.9877863,15.5539113 C18.7556998,11.3270125 15.2522496,8 11,8 L10.7169906,8 C7.95500894,8 5.38784649,9.42284374 3.92399915,11.7649995 Z M8.5,11 C8.77614237,11 9,11.2238576 9,11.5 C9,11.7761424 8.77614237,12 8.5,12 L3.5,12 C3.22385763,12 3,11.7761424 3,11.5 L3,6.5 C3,6.22385763 3.22385763,6 3.5,6 C3.77614237,6 4,6.22385763 4,6.5 L4,11 L8.5,11 Z"
      />
    </symbol>

    <symbol id="delete" viewBox="0 -960 960 960">
      <path
          d="m249-207-42-42 231-231-231-231 42-42 231 231 231-231 42 42-231 231 231 231-42 42-231-231-231 231Z"
        /></symbol>

<!-- глаз - дивитись -->
<symbol id="visibility" viewBox="0 -960 960 960">
  <path
      d="M480.118-330Q551-330 600.5-379.618q49.5-49.617 49.5-120.5Q650-571 600.382-620.5q-49.617-49.5-120.5-49.5Q409-670 359.5-620.382q-49.5 49.617-49.5 120.5Q310-429 359.618-379.5q49.617 49.5 120.5 49.5Zm-.353-58Q433-388 400.5-420.735q-32.5-32.736-32.5-79.5Q368-547 400.735-579.5q32.736-32.5 79.5-32.5Q527-612 559.5-579.265q32.5 32.736 32.5 79.5Q592-453 559.265-420.5q-32.736 32.5-79.5 32.5ZM480-200q-146 0-264-83T40-500q58-134 176-217t264-83q146 0 264 83t176 217q-58 134-176 217t-264 83Zm0-300Zm-.169 240Q601-260 702.5-325.5 804-391 857-500q-53-109-154.331-174.5-101.332-65.5-222.5-65.5Q359-740 257.5-674.5 156-609 102-500q54 109 155.331 174.5 101.332 65.5 222.5 65.5Z"
    /></symbol>


      <symbol id="sun" viewBox="0 0 16 16">
      <path
            d="M8 12a4 4 0 1 0 0-8 4 4 0 0 0 0 8zM8 0a.5.5 0 0 1 .5.5v2a.5.5 0 0 1-1 0v-2A.5.5 0 0 1 8 0zm0 13a.5.5 0 0 1 .5.5v2a.5.5 0 0 1-1 0v-2A.5.5 0 0 1 8 13zm8-5a.5.5 0 0 1-.5.5h-2a.5.5 0 0 1 0-1h2a.5.5 0 0 1 .5.5zM3 8a.5.5 0 0 1-.5.5h-2a.5.5 0 0 1 0-1h2A.5.5 0 0 1 3 8zm10.657-5.657a.5.5 0 0 1 0 .707l-1.414 1.415a.5.5 0 1 1-.707-.708l1.414-1.414a.5.5 0 0 1 .707 0zm-9.193 9.193a.5.5 0 0 1 0 .707L3.05 13.657a.5.5 0 0 1-.707-.707l1.414-1.414a.5.5 0 0 1 .707 0zm9.193 2.121a.5.5 0 0 1-.707 0l-1.414-1.414a.5.5 0 0 1 .707-.707l1.414 1.414a.5.5 0 0 1 0 .707zM4.464 4.465a.5.5 0 0 1-.707 0L2.343 3.05a.5.5 0 1 1 .707-.707l1.414 1.414a.5.5 0 0 1 0 .708z"
          />
      </symbol>


      <symbol id="lump" viewBox="0 0 384 512">
      <path
            d="M281.2 248.9C295.6 228.3 304 203.2 304 176c0-70.7-57.3-128-128-128S48 105.3 48 176c0 27.2 8.4 52.3 22.8 72.9c3.7 5.3 8.1 11.3 12.8 17.7l0 0c12.9 17.7 28.3 38.9 39.8 59.8c10.4 19 15.7 38.8 18.3 57.5H93c-2.2-12-5.9-23.7-11.8-34.5c-9.9-18-22.2-34.9-34.5-51.8l0 0 0 0c-5.2-7.1-10.4-14.2-15.4-21.4C11.6 247.9 0 213.3 0 176C0 78.8 78.8 0 176 0s176 78.8 176 176c0 37.3-11.6 71.9-31.4 100.3c-5 7.2-10.2 14.3-15.4 21.4l0 0 0 0c-12.3 16.8-24.6 33.7-34.5 51.8c-5.9 10.8-9.6 22.5-11.8 34.5H210.4c2.6-18.7 7.9-38.6 18.3-57.5c11.5-20.9 26.9-42.1 39.8-59.8l0 0 0 0 0 0c4.7-6.4 9-12.4 12.7-17.7zM176 128c-26.5 0-48 21.5-48 48c0 8.8-7.2 16-16 16s-16-7.2-16-16c0-44.2 35.8-80 80-80c8.8 0 16 7.2 16 16s-7.2 16-16 16zm0 384c-44.2 0-80-35.8-80-80V416H256v16c0 44.2-35.8 80-80 80z"
          />
      </symbol>





      <symbol id="child-dress" viewBox="0 0 320 512">
      <path
            d="M224 64A64 64 0 1 0 96 64a64 64 0 1 0 128 0zM88 400v80c0 17.7 14.3 32 32 32s32-14.3 32-32V400h16v80c0 17.7 14.3 32 32 32s32-14.3 32-32V400h17.8c10.9 0 18.6-10.7 15.2-21.1l-31.1-93.4 28.6 37.8c10.7 14.1 30.8 16.8 44.8 6.2s16.8-30.7 6.2-44.8L254.6 207c-22.4-29.6-57.5-47-94.6-47s-72.2 17.4-94.6 47L6.5 284.7c-10.7 14.1-7.9 34.2 6.2 44.8s34.2 7.9 44.8-6.2l28.7-37.8L55 378.9C51.6 389.3 59.3 400 70.2 400H88z"
          />
      </symbol>

      <symbol id="children" viewBox="0 0 640 512">
      <path
            d="M160 0a64 64 0 1 1 0 128A64 64 0 1 1 160 0zM88 480V400H70.2c-10.9 0-18.6-10.7-15.2-21.1l31.1-93.4L57.5 323.3c-10.7 14.1-30.8 16.8-44.8 6.2s-16.8-30.7-6.2-44.8L65.4 207c22.4-29.6 57.5-47 94.6-47s72.2 17.4 94.6 47l58.9 77.7c10.7 14.1 7.9 34.2-6.2 44.8s-34.2 7.9-44.8-6.2l-28.6-37.8L265 378.9c3.5 10.4-4.3 21.1-15.2 21.1H232v80c0 17.7-14.3 32-32 32s-32-14.3-32-32V400H152v80c0 17.7-14.3 32-32 32s-32-14.3-32-32zM480 0a64 64 0 1 1 0 128A64 64 0 1 1 480 0zm-8 384v96c0 17.7-14.3 32-32 32s-32-14.3-32-32V300.5L395.1 321c-9.4 15-29.2 19.4-44.1 10s-19.4-29.2-10-44.1l51.7-82.1c17.6-27.9 48.3-44.9 81.2-44.9h12.3c33 0 63.7 16.9 81.2 44.9L619.1 287c9.4 15 4.9 34.7-10 44.1s-34.7 4.9-44.1-10L552 300.5V480c0 17.7-14.3 32-32 32s-32-14.3-32-32V384H472z"
          />
      </symbol>

      <!-- викрутка та гаєчний ключ -->
      <symbol id="tools" viewBox="0 0 32 32">
      <path
            d="M25.128,31.48c-1.653,0-3.285-0.644-4.505-1.862c-1.697-1.698-2.29-4.224-1.542-6.493L8.874,12.92
        c-2.271,0.747-4.794,0.153-6.491-1.543c-1.904-1.903-2.404-4.813-1.244-7.24c0.05-0.105,0.148-0.18,0.264-0.2
        c0.118-0.018,0.233,0.018,0.315,0.101L5.72,8.04c0.64,0.638,1.68,0.639,2.32,0c0.639-0.64,0.639-1.68,0-2.32L4.038,1.718
        c-0.083-0.083-0.12-0.2-0.101-0.315c0.02-0.115,0.094-0.213,0.2-0.264c2.427-1.161,5.336-0.66,7.239,1.243
        c1.698,1.698,2.292,4.224,1.542,6.494l10.206,10.205c2.271-0.752,4.796-0.156,6.493,1.542c1.902,1.903,2.402,4.812,1.243,7.24
        c-0.051,0.105-0.149,0.18-0.265,0.199c-0.108,0.022-0.231-0.018-0.315-0.1l-4.002-4.002c-0.639-0.639-1.68-0.639-2.318,0
        c-0.64,0.64-0.64,1.68,0,2.318l4.002,4.002c0.082,0.083,0.12,0.2,0.1,0.315s-0.094,0.214-0.199,0.265
        C26.991,31.277,26.057,31.48,25.128,31.48z M8.968,12.146c0.094,0,0.186,0.037,0.254,0.105L19.75,22.775
        c0.1,0.1,0.132,0.248,0.083,0.38c-0.765,2.062-0.255,4.399,1.3,5.953c1.564,1.564,3.896,2.06,5.942,1.305l-3.624-3.624
        c-0.919-0.92-0.919-2.417,0-3.338c0.924-0.918,2.42-0.917,3.338,0l3.624,3.624c0.755-2.047,0.26-4.378-1.305-5.942
        c-1.554-1.555-3.889-2.065-5.953-1.3c-0.132,0.048-0.279,0.017-0.38-0.083L12.25,9.225c-0.1-0.099-0.132-0.248-0.083-0.38
        c0.766-2.062,0.255-4.399-1.299-5.954c-1.564-1.564-3.896-2.06-5.943-1.304l3.624,3.624C8.993,5.655,9.237,6.248,9.237,6.88
        S8.992,8.105,8.548,8.548c-0.888,0.889-2.45,0.888-3.337,0L1.587,4.925c-0.755,2.046-0.26,4.378,1.304,5.943
        c1.554,1.554,3.892,2.064,5.952,1.3C8.884,12.153,8.926,12.146,8.968,12.146z M2.858,31.24c-0.092,0-0.185-0.036-0.254-0.105
        l-1.743-1.743c-0.136-0.136-0.141-0.354-0.012-0.497l2.936-3.229c0.066-0.073,0.159-0.115,0.258-0.118
        c0.077,0,0.193,0.036,0.263,0.105l0.764,0.764l7.476-7.477l0.509,0.51l-7.476,7.477l0.763,0.763c0.07,0.07,0.108,0.165,0.105,0.264
        s-0.045,0.191-0.118,0.258L3.1,31.148C3.032,31.209,2.945,31.24,2.858,31.24z M1.613,29.125l1.257,1.258l2.695-2.451L4.063,26.43
        L1.613,29.125z M21.361,14.518l-0.51-0.509l9.311-9.311c0.384-0.383,0.595-0.892,0.595-1.433s-0.211-1.05-0.595-1.433
        c-0.788-0.788-2.074-0.79-2.864,0l-9.311,9.311l-0.51-0.509l9.311-9.311c1.038-1.038,2.848-1.036,3.884,0
        c0.519,0.519,0.805,1.208,0.805,1.942s-0.286,1.423-0.805,1.942L21.361,14.518z M19.674,12.831l-0.51-0.509l9.282-9.282l0.51,0.509
        L19.674,12.831z"
          />
      </symbol>

      <symbol id="calendar2" viewBox="0 0 512 512">
        <rect
              fill="none"
              stroke="currentColor"
              stroke-linejoin="round"
              stroke-width="32"
              x="48"
              y="80"
              width="416"
              height="384"
              rx="48"
            /><circle cx="296" cy="232" r="24" /><circle
              cx="376"
              cy="232"
              r="24"
            /><circle cx="296" cy="312" r="24" /><circle
              cx="376"
              cy="312"
              r="24"
            /><circle cx="136" cy="312" r="24" /><circle
              cx="216"
              cy="312"
              r="24"
            /><circle cx="136" cy="392" r="24" /><circle
              cx="216"
              cy="392"
              r="24"
            /><circle cx="296" cy="392" r="24" /><path
              fill="none"
              stroke="currentColor"
              stroke-linejoin="round"
              stroke-width="32"
              stroke-linecap="round"
              d="M128 48v32M384 48v32"
            /><path
              fill="none"
              stroke="currentColor"
              stroke-linejoin="round"
              stroke-width="32"
              d="M464 160H48"
            /></symbol>

<!-- вантажний візок -->
<symbol id="trolley" viewBox="0 -960 960 960">
  <path d="M160-260v-520H80v-60h140v520h620v60H160Zm59.115 180Q194-80 177-97.677q-17-17.677-17-42.5t17-42.323q17-17.5 42.115-17.5 25.115 0 43 17.677t17.885 42.5Q280-115 262.115-97.5t-43 17.5ZM290-390v-220h220v220H290Zm60-60h100v-100H350v100Zm220 60v-220h220v220H570Zm60-60h100v-100H630v100ZM779.823-80Q755-80 737.5-97.677t-17.5-42.5Q720-165 737.677-182.5t42.5-17.5Q805-200 822.5-182.323t17.5 42.5Q840-115 822.323-97.5t-42.5 17.5ZM350-450h100-100Zm280 0h100-100Z"/>
</symbol>

<symbol id="calendar" viewBox="0 0 490 490">
  <g>
    <g id="XMLID_408_">
      <rect x="313.607" y="36.726" width="85.737" height="15.313"/>
    </g>
    <g id="XMLID_585_">
      <rect x="205.582" y="36.726" width="77.871" height="15.313"/>
    </g>
    <g id="XMLID_586_">
      <rect x="92.316" y="36.726" width="82.589" height="15.313"/>
    </g>
    <g id="XMLID_98_">
      <polygon points="490,490 0,490 0,36.726 60.143,36.726 60.143,52.039 15.313,52.039 15.313,474.688 474.688,474.688
        474.688,52.039 428.279,52.039 428.279,36.726 490,36.726 		"/>
    </g>
    <g id="XMLID_580_">
      <rect x="69" y="0" width="15" height="92"/>
    </g>
    <g id="XMLID_581_">
      <rect x="184" y="0" width="15" height="92"/>
    </g>
    <g id="XMLID_582_">
      <rect x="291" y="0" width="15" height="92"/>
    </g>
    <g id="XMLID_583_">
      <rect x="406" y="0" width="15" height="92"/>
    </g>
    <g id="XMLID_407_">
      <rect x="31" y="123" width="428" height="15"/>
    </g>
    <g id="XMLID_406_">
      <path d="M122.889,246.219h-77.25v-77.25h77.25V246.219z M60.951,230.906h46.625v-46.625H60.951V230.906z"/>
    </g>
    <g id="XMLID_410_">
      <path d="M230.031,246.219h-77.25v-77.25h77.25V246.219z M168.094,230.906h46.625v-46.625h-46.625V230.906z"/>
    </g>
    <g id="XMLID_446_">
      <path d="M337.219,246.219h-77.25v-77.25h77.25V246.219z M275.281,230.906h46.625v-46.625h-46.625V230.906z"/>
    </g>
    <g id="XMLID_447_">
      <path d="M444.264,246.219h-77.25v-77.25h77.25V246.219z M382.327,230.906h46.625v-46.625h-46.625V230.906z"/>
    </g>
    <g id="XMLID_450_">
      <path d="M122.889,345.75h-77.25V268.5h77.25V345.75z M60.951,330.437h46.625v-46.625H60.951V330.437z"/>
    </g>
    <g id="XMLID_449_">
      <path d="M230.031,345.75h-77.25V268.5h77.25V345.75z M168.094,330.437h46.625v-46.625h-46.625V330.437z"/>
    </g>
    <g id="XMLID_448_">
      <path d="M337.219,345.75h-77.25V268.5h77.25V345.75z M275.281,330.437h46.625v-46.625h-46.625V330.437z"/>
    </g>
    <g id="XMLID_409_">
      <path d="M444.264,345.75h-77.25V268.5h77.25V345.75z M382.327,330.437h46.625v-46.625h-46.625V330.437z"/>
    </g>
    <g id="XMLID_577_">
      <path d="M122.889,445.281h-77.25v-77.25h77.25V445.281z M60.951,429.969h46.625v-46.625H60.951V429.969z"/>
    </g>
    <g id="XMLID_453_">
      <path d="M230.031,445.281h-77.25v-77.25h77.25V445.281z M168.094,429.969h46.625v-46.625h-46.625V429.969z"/>
    </g>
    <g id="XMLID_452_">
      <path d="M337.219,445.281h-77.25v-77.25h77.25V445.281z M275.281,429.969h46.625v-46.625h-46.625V429.969z"/>
    </g>
    <g id="XMLID_451_">
      <path d="M444.264,445.281h-77.25v-77.25h77.25V445.281z M382.327,429.969h46.625v-46.625h-46.625V429.969z"/>
    </g>
  </g>
</symbol>

<!-- песик несе кульку -->
<symbol id="birthday1" viewBox="0 0 235.51 235.511">
  <g>
    <g>
      <path
            d="M175.585,148.621c-8.876-4.087-22.064-4.953-31.57-4.953c-3.058,0-5.61,0.076-7.357,0.169l0.084-8.279
        c3.991-1.403,5.635-4.601,6.271-6.616c0.697,0.16,1.419,0.232,2.137,0.232c7.554,0,13.465-8.352,13.5-8.412
        c11.081-12.984,3.154-36.167,2.785-37.225l-0.965-1.361l-0.862-0.16c-1.454-0.298-3.157-0.449-5.073-0.449
        c-12.627,0-31.264,6.578-36.994,8.72c-4.42-3.797-13.52-5.791-14.619-6.045l-1.545,0.104l-0.591,0.557
        c-0.938,0.904-2.893,2.777,3.064,14.607c-0.684,0.521-1.311,1.092-1.886,1.675c-5.322-1.579-14.857-2.158-15.943-2.238
        l-2.717-0.164l0.072,2.725c0.292,11.499,20.638,26.114,23.417,27.938c1.603,16.246-32.705,32.944-33.035,33.121
        c-5.094,2.184-13.251,3.358-23.566,3.358c-7.78,0-14.186-0.706-14.232-0.706l-1.797-0.176l-0.755,1.623
        c-0.675,1.475-0.675,3.098,0,4.692c2.395,5.703,14.17,11.101,21.235,13.906c-3.619,6.42-3.194,16.936-2.967,18.799
        c-7.927,7.927-11.491,15.088-10.606,21.283c0.89,6.132,5.769,8.724,5.983,8.832l2.464,1.331l1.012-2.605
        c2.561-6.5,19.745-23.383,25.396-28.949l0.867-1.227c3.595,0.661,7.079,1.074,10.367,1.227c1.146,0.076,2.263,0.092,3.371,0.092
        c32.248,0,41.144-24.686,43.176-32.748c0.344,0.044,0.688,0.06,1.05,0.06c3.054,0,5.811-1.779,7.302-2.945
        c1.791,1.259,3.862,1.888,6.115,1.888c5.959,0,11.958-4.433,16.39-7.69c1.122-0.817,2.132-1.555,2.974-2.107
        c9.354-5.919,9.923-7.867,9.706-9.65C177.105,149.804,176.383,148.85,175.585,148.621z M164.854,156.288
        c-0.934,0.597-2.04,1.395-3.314,2.332c-3.831,2.821-9.076,6.685-13.377,6.685c-1.694,0-3.117-0.63-4.376-1.948l-1.839-1.932
        l-1.796,1.977c-0.128,0.132-2.93,2.977-5.414,2.977c-0.564,0-1.086-0.164-1.57-0.477l-3.311-2.132l-0.513,3.911
        c-0.156,1.271-4.332,31.37-38.778,31.37c-1.02,0-2.09-0.032-3.158-0.076c-3.291-0.16-6.835-0.613-10.588-1.318l-1.499,0.093
        l-0.583,0.536c-0.848,0.81-20.756,19.456-27.272,29.775c-0.587-0.766-1.238-1.903-1.477-3.435
        c-0.667-4.601,2.733-10.703,9.836-17.681l0.739-1.178l-0.052-0.705c-0.309-4.096-0.23-15.533,3.791-19.076l3.178-2.805
        l-4.003-1.427c-4.765-1.703-17.398-6.9-20.836-11.277c2.442,0.185,6.688,0.453,11.527,0.453c11.152,0,19.774-1.274,25.64-3.787
        c1.583-0.766,39.094-18.814,35.812-39.236l-0.487-1.198l-0.551-0.381c-5.042-3.435-18.511-14.018-21.604-22.115
        c4.831,0.435,10.576,1.229,12.758,2.225l1.986,0.869l1.152-1.821c0.175-0.24,1.196-1.609,3.489-2.973l2.024-1.227l-1.106-2.09
        c-1.733-3.288-3.298-6.789-4.091-9.207c3.879,1.13,8.323,2.921,9.722,4.757l1.146,1.477l1.755-0.691
        c0.252-0.099,2.02-0.786,4.703-1.709c0.613,1.771,2.284,3.068,4.264,3.068c2.492,0,4.524-2.032,4.524-4.528
        c0-0.471-0.085-0.89-0.205-1.318c7.458-2.238,16.599-4.477,23.42-4.477c0.949,0,1.831,0.056,2.637,0.141
        c1.15,3.987,5.534,21.604-2.461,30.995c-0.044,0.054-4.853,6.494-9.59,6.494c-0.949,0-1.831-0.276-2.729-0.842l-3.879-2.5
        l0.031,4.645c0.013,0.484-0.1,4.953-4.7,5.643l-2.108,0.324l-0.168,17.736l2.757-0.212c0.722-0.064,4.541-0.325,9.662-0.325
        c7.803,0,18.707,0.613,26.83,3.451C169.823,152.945,167.996,154.296,164.854,156.288z"
          />
      <path
            d="M202.435,32.18c0.842-7.684-1.35-15.252-6.195-21.315c-4.845-6.053-11.754-9.853-19.456-10.698
        C175.718,0.04,174.66,0,173.578,0c-4.171,0-8.219,0.864-12.014,2.607c-4.437,2.032-8.203,5.149-11.068,8.951
        c-3.282-1.242-6.785-1.932-10.295-1.932c-4.164,0-8.203,0.886-12.022,2.637c-2.076,0.936-4.044,2.128-5.849,3.559
        c-12.593,9.858-14.815,28.12-4.945,40.72c11.876,15.156,31.364,17.41,41.912,17.41c2.705,0,4.745-0.143,5.851-0.243l-1.895,3.853
        l8.455,0.638l-1.362-5.777c3.879,0.487,13.413,2.344,17.248,8.774c2.696,4.5,2.168,10.672-1.503,18.33
        c-1.455,3.01-2.773,5.707-3.987,8.133c-11.068,22.332-11.47,24.532,7.337,45.754c0.485,0.514,1.143,0.834,1.864,0.834
        c0.368,0,0.713-0.093,1.033-0.221c0.209-0.116,0.438-0.232,0.622-0.425c1.033-0.894,1.134-2.488,0.216-3.519
        c-17.02-19.18-16.823-19.58-6.597-40.2c1.207-2.451,2.549-5.16,4.004-8.189c4.477-9.271,4.905-17.025,1.303-23.062
        c-3.419-5.717-9.742-8.56-14.932-9.979C185.921,63.119,200.303,51.411,202.435,32.18z M121.332,53.447
        c-3.948-5.047-5.707-11.319-4.921-17.695c0.765-6.374,3.971-12.066,9.002-16.006c1.499-1.17,3.126-2.166,4.85-2.959
        c3.165-1.447,6.508-2.178,9.95-2.178c2.532,0,5.045,0.44,7.605,1.242c-1.578,3.094-2.652,6.436-3.049,9.97
        c-2.232,20.33,12.018,36.383,19.059,42.954c-0.981,0.088-2.393,0.154-4.111,0.154C149.902,68.902,131.857,66.894,121.332,53.447z
         M169.43,67.074c-0.132-0.1-0.292-0.242-0.452-0.376l-0.137-0.597l-0.168,0.329c-5.086-4.544-21.1-20.494-18.932-40.068
        c0.914-8.352,6.244-15.731,13.902-19.215c3.134-1.437,6.476-2.154,9.934-2.154c0.891,0,1.779,0.05,2.67,0.168
        c6.375,0.705,12.09,3.837,16.089,8.848c4.012,5.014,5.835,11.281,5.114,17.641C195.074,53.203,174.131,64.752,169.43,67.074z"
          />
      <path
            d="M153.89,100.492c0.509,0,0.981-0.116,1.426-0.331c1.311-0.667,2.324-3.2,2.762-5.438c0.252-1.365,0.513-3.875-0.661-5.244
        c-0.381-0.449-0.994-0.659-1.823-0.659c-2.509,0-7.574,2.126-8.833,4.657c-0.461,0.907-0.396,1.859,0.177,2.661
        C147.442,96.812,150.856,100.492,153.89,100.492z"
          />
      <path
            d="M124.336,97.375c2.318,0,4.202,1.883,4.202,4.202c0,2.32-1.884,4.202-4.202,4.202c-2.318,0-4.197-1.882-4.197-4.202
        C120.139,99.258,122.019,97.375,124.336,97.375z"
          />
    </g>
  </g>
  </symbol>


</svg>
